<?xml version="1.0" standalone="no"?>
<!DOCTYPE svg PUBLIC "-//W3C//DTD SVG 20010904//EN"
 "http://www.w3.org/TR/2001/REC-SVG-20010904/DTD/svg10.dtd">
<svg version="1.0" xmlns="http://www.w3.org/2000/svg"
 width="820.000000pt" height="312.000000pt" viewBox="0 0 820.000000 312.000000"
 preserveAspectRatio="xMidYMid meet">
<metadata>
Created by potrace 1.16, written by Peter Selinger 2001-2019
</metadata>
<g transform="translate(0.000000,312.000000) scale(0.100000,-0.100000)"
fill="#000000" stroke="none">
<path d="M863 2185 c-133 -37 -232 -118 -286 -233 -28 -59 -32 -77 -32 -152 0
-74 4 -91 27 -132 l27 -48 -27 -6 c-50 -12 -142 -67 -177 -105 -71 -78 -115
-202 -115 -321 0 -162 100 -287 280 -349 54 -19 87 -23 195 -23 151 -1 215 13
343 74 l84 40 31 -34 c58 -60 110 -80 212 -81 76 0 99 4 145 26 31 14 73 41
94 59 26 23 42 31 50 24 114 -87 182 -109 336 -109 93 0 129 5 189 23 l73 23
23 -21 c49 -46 152 -31 190 26 9 14 61 154 116 312 57 163 111 301 125 319 58
76 154 85 154 16 0 -13 -45 -148 -100 -301 -55 -153 -100 -292 -100 -309 0
-62 67 -106 137 -89 63 16 83 54 193 365 89 253 109 299 140 332 40 43 80 57
116 40 36 -16 31 -46 -42 -241 -97 -258 -99 -346 -9 -429 89 -82 230 -93 356
-28 59 30 70 33 81 20 52 -63 204 -79 293 -30 28 15 57 32 66 39 14 9 23 7 49
-15 75 -63 226 -73 338 -22 31 14 64 33 74 42 16 15 21 14 55 -10 72 -50 112
-61 214 -62 94 0 99 1 178 41 77 40 81 41 97 23 26 -29 100 -59 162 -65 78 -9
155 9 223 51 l57 35 56 -34 c73 -44 141 -60 225 -53 101 9 157 33 219 93 l55
53 72 -2 71 -2 -4 -47 c-4 -40 -1 -50 21 -72 48 -48 150 -27 193 39 10 15 62
151 115 302 58 162 109 290 125 310 50 65 115 90 149 56 22 -22 19 -34 -61
-260 -77 -216 -84 -275 -45 -351 24 -48 90 -96 156 -113 83 -23 221 10 306 72
13 10 23 7 55 -15 76 -52 163 -71 324 -71 107 0 162 5 210 18 134 36 247 109
324 211 44 58 106 184 106 216 0 30 -42 68 -83 75 -56 11 -91 -15 -131 -94
-32 -63 -115 -161 -137 -161 -5 0 -9 19 -9 43 0 67 -27 143 -91 258 -70 126
-80 162 -50 178 71 38 68 168 -5 216 -52 34 -153 18 -195 -31 -9 -11 -58 -98
-108 -194 -51 -96 -102 -182 -113 -190 -97 -73 -129 -116 -152 -205 -12 -48
-23 -68 -56 -97 -67 -60 -140 -61 -140 -3 0 13 29 106 65 208 88 250 92 271
71 335 -23 68 -83 127 -149 147 -66 20 -110 19 -177 -5 -49 -17 -57 -17 -72
-3 -26 23 -90 28 -126 9 -41 -21 -44 -28 -142 -304 l-83 -233 -42 -25 c-23
-13 -60 -25 -81 -27 -36 -2 -39 0 -42 25 -2 17 4 36 17 49 33 36 73 157 78
239 8 122 -36 198 -145 252 -60 30 -75 33 -157 33 -76 0 -99 -4 -147 -27 -77
-36 -121 -71 -156 -123 -16 -24 -62 -137 -102 -252 -75 -212 -107 -275 -160
-313 -62 -44 -132 -32 -133 21 0 14 44 150 98 302 105 299 109 321 61 366 -34
32 -93 37 -133 12 -43 -27 -57 -57 -148 -321 -42 -124 -87 -243 -100 -265 -49
-85 -132 -144 -203 -145 -24 0 -42 9 -64 30 -37 37 -40 18 60 307 l77 223 68
0 c105 0 157 37 157 111 0 52 -35 79 -101 79 -27 0 -49 3 -49 6 0 3 25 80 56
170 51 151 55 167 44 200 -25 76 -123 96 -182 36 -22 -21 -47 -79 -97 -218
l-69 -189 -60 -6 c-33 -3 -72 -14 -87 -23 -76 -50 -48 -166 40 -166 33 0 36
-2 29 -22 -4 -13 -37 -111 -74 -218 -59 -171 -73 -201 -111 -244 -61 -69 -129
-94 -163 -60 -21 20 -21 18 90 342 52 150 94 284 94 297 0 93 -115 139 -201
81 l-36 -25 -62 20 c-76 23 -130 24 -200 3 -57 -16 -132 -77 -157 -126 -8 -15
-52 -137 -99 -270 -80 -229 -87 -245 -129 -285 -68 -65 -146 -69 -146 -7 0 13
33 113 73 221 62 172 72 207 72 265 0 58 -4 72 -30 110 -80 113 -277 140 -412
56 l-33 -19 -32 24 c-61 46 -152 59 -228 32 -39 -14 -48 -14 -86 1 -54 21
-105 12 -144 -24 -23 -21 -45 -74 -106 -252 -42 -124 -86 -244 -97 -268 -25
-55 -96 -117 -177 -155 -56 -27 -77 -31 -150 -31 -99 -1 -150 18 -182 68 -19
31 -20 98 -1 117 5 5 33 0 63 -12 75 -29 184 -23 255 13 62 32 129 103 155
163 82 192 -30 372 -243 392 -109 10 -214 -32 -289 -115 -51 -56 -61 -79 -135
-291 -35 -102 -73 -199 -83 -216 -43 -68 -120 -125 -170 -125 -28 0 -52 29
-44 54 3 11 82 242 175 512 108 315 169 506 169 531 0 106 -148 137 -204 43
-9 -17 -84 -221 -166 -454 -82 -234 -155 -437 -164 -454 -21 -40 -119 -128
-175 -157 -123 -62 -307 -80 -386 -38 -103 55 -134 156 -81 270 44 93 162 136
259 94 29 -13 70 -21 102 -21 46 0 60 5 88 30 45 39 61 79 54 136 -7 68 -45
102 -126 115 -103 16 -141 55 -141 146 0 104 64 173 160 173 59 0 87 -20 115
-84 25 -56 46 -79 87 -95 57 -21 132 24 144 87 10 51 -12 131 -51 184 -72 98
-256 152 -392 113z m1257 -635 c30 -16 44 -72 27 -113 -21 -48 -52 -67 -112
-67 -77 0 -83 8 -61 72 23 64 39 88 68 105 28 15 53 16 78 3z m3851 -9 c19
-15 24 -28 22 -63 -1 -23 -8 -61 -16 -83 -12 -34 -19 -41 -51 -47 -110 -23
-161 -142 -100 -232 32 -47 24 -74 -29 -99 -50 -24 -84 -21 -114 9 -21 21 -25
32 -20 65 6 45 123 384 144 415 32 50 122 69 164 35z m-1844 -42 c7 -14 10
-39 7 -59 -11 -66 -96 -325 -120 -367 -24 -42 -67 -73 -100 -73 -27 0 -54 30
-54 59 0 29 113 389 137 434 19 38 71 60 98 43 11 -7 26 -24 32 -37z m3370
-186 c78 -100 88 -242 20 -299 -28 -23 -38 -26 -89 -22 -47 3 -64 10 -86 31
l-27 27 40 0 c49 0 98 29 125 72 24 40 27 125 5 154 -15 19 -20 54 -9 54 4 0
13 -8 21 -17z"/>
<path d="M5381 2142 c-67 -34 -91 -100 -62 -170 26 -63 116 -91 182 -56 45 23
73 91 60 142 -15 55 -72 102 -123 102 -13 0 -38 -8 -57 -18z"/>
</g>
</svg>
